<svg xmlns="http://www.w3.org/2000/svg" viewBox="0 0 200 200" id="Fast-Food-1--Streamline-Milano">
  <desc>
    Fast Food 1 Streamline Illustration: https://streamlinehq.com
  </desc>
  <g fill="#000000">
    <path d="M53.54 47.09v0.92a0.24 0.24 0 0 0 0.07 0.18c0.12 0.09 0.23 0 0.26 -0.14s0 -0.78 0 -1a0.15 0.15 0 1 0 -0.33 0.04zm0.74 -0.7c0 0.12 0.34 0 0.22 -0.28 0 0 -0.69 -0.85 -1.3 -0.16 -0.05 0.06 0 0.2 0.12 0.21s0.68 -0.39 0.96 0.23zm2.28 7.07c-0.18 -0.07 -0.29 0.38 0.06 0.49 0 0 1.52 0.16 1.43 -1.11 0 -0.12 -0.22 -0.17 -0.33 -0.09s-0.27 1.04 -1.16 0.71zm57.49 75.96c-0.45 0.22 -1 0.74 -0.73 1.3 0.9 1.59 10.3 1.28 11.41 0 0.45 -0.5 0.57 -1.78 -3.87 -2 -1.79 -0.11 -5.2 -0.1 -6.81 0.7zm9.74 1.43c-2 0.64 -8.7 0.91 -10 -0.14 -0.4 -0.32 0 -0.74 0.32 -0.93 1.64 -0.95 6.78 -0.91 8.42 -0.59 2.67 0.53 1.78 1.49 1.26 1.66zm-12.67 3.42c-0.31 0.13 -0.75 0.37 -0.73 0.77 0 0.74 1.35 1.06 1.91 1.07a96.09 96.09 0 0 0 17.07 -0.93c0.88 -0.21 1 -0.93 -0.14 -1.64 -0.68 -0.42 -4.16 -0.27 -6.36 -0.47a39.94 39.94 0 0 0 -11.75 1.2zm17.85 -0.43c0.63 0.36 1 0.77 0.34 0.95a89.62 89.62 0 0 1 -11.84 1 39.29 39.29 0 0 1 -5.75 -0.18c-0.26 -0.07 -0.83 -0.23 -0.93 -0.52 -0.24 -0.63 2.6 -1 3 -1.05a40.37 40.37 0 0 1 9.16 -0.62 54.06 54.06 0 0 1 6.05 0.42zm-19.03 4.25c-0.77 0.14 -3.12 0.42 -2.58 1.75a1.42 1.42 0 0 0 1.32 0.8c0.63 0.05 20.44 0.2 22.36 -1.3a1 1 0 0 0 0.2 -1.53 5.76 5.76 0 0 0 -2 -0.59c-4.04 -0.68 -17.5 0.54 -19.3 0.87zm20.13 1.14c-0.82 0.1 -1.85 0.81 -18.16 1.13a17.26 17.26 0 0 1 -3.82 -0.26c-0.23 -0.13 -0.49 -0.44 -0.39 -0.72 0.25 -0.77 1.18 -1.09 12.85 -1.91 2.5 -0.18 7.61 0 8.3 0 3.25 0.38 2.15 1.64 1.22 1.76zm-63.52 23.18a0.18 0.18 0 0 0 0 0.32c0.14 0.08 0.31 0.05 0.45 0.13 0.84 0.49 -1.57 0.75 -2.31 0.11 -0.07 -0.06 0 -0.17 0.09 -0.17s0.16 -0.27 0 -0.26c-0.55 0 -0.38 0.57 -0.27 0.7 0.41 0.49 1.81 0.44 2.2 0.39 1.38 -0.18 0.62 -1.46 -0.16 -1.22zm-9.42 2.08h-2c-1.21 0.18 -1.44 0.88 -1.05 1.2a5 5 0 0 0 2.08 0.41c0.78 0 2.21 -0.19 2.08 -1a1.25 1.25 0 0 0 -1.11 -0.61zm0.2 1.2a5.36 5.36 0 0 1 -2.77 -0.11c-0.35 -0.09 -0.45 -0.21 -0.17 -0.43a1.72 1.72 0 0 1 0.89 -0.3 12.32 12.32 0 0 1 1.61 -0.06c1.17 0.03 1.11 0.77 0.44 0.9zm91.8 -50.12a0.14 0.14 0 0 0 0 0.27c7.6 0.19 28.05 -1.15 29.09 -1.32a0.15 0.15 0 0 0 0 -0.3c-1.94 0.11 -26.96 1.39 -29.09 1.35zm-5.69 9.13c-0.17 0 -0.17 0.27 0 0.26 1.91 -0.09 9.58 -0.45 11.48 -0.65 0.19 0 0.2 -0.31 0 -0.31 -1.92 0 -9.57 0.57 -11.48 0.7zm10.68 -72.43c5.41 0 19.25 -0.16 20.76 -0.22a0.12 0.12 0 1 0 0 -0.23c-5.39 -0.1 -19.24 0.17 -20.76 0.19a0.13 0.13 0 0 0 0 0.26zM124 75.05c0.66 0.12 0.52 0.58 0.74 0.48 0 0 0.07 0 0.07 -0.09a0.79 0.79 0 0 0 -0.67 -0.73c-0.22 -0.07 -0.26 0.29 -0.14 0.34zm0.82 7.09a0.15 0.15 0 0 0 0.21 0.21c0.11 -0.08 1 -1 1.13 -1.23s-0.13 -0.38 -0.29 -0.23 -1.01 1.19 -1.05 1.25zm3.99 -7.33c0.31 0.12 1.61 0.87 1.76 1a0.15 0.15 0 0 0 0.2 -0.21 6.8 6.8 0 0 0 -1.92 -1.07 0.16 0.16 0 0 0 -0.04 0.28zm-11.27 2.02c0.24 -0.23 1.5 -1.06 1.64 -1.15a0.15 0.15 0 0 0 -0.09 -0.27 6.55 6.55 0 0 0 -1.82 1.24c-0.09 0.13 0.12 0.35 0.27 0.18zm15.63 2.7a0.84 0.84 0 0 0 0.38 -1.4c-0.11 -0.12 -0.38 0.1 -0.29 0.22a0.54 0.54 0 0 1 -0.21 0.87c-0.12 0.1 -0.05 0.35 0.12 0.31zm-6.28 -6.09a0.84 0.84 0 0 0 -1.36 -0.48c-0.13 0.1 0.07 0.38 0.2 0.3a0.54 0.54 0 0 1 0.84 0.28c0.09 0.13 0.35 0.06 0.32 -0.1zm-12.38 7.7a3.07 3.07 0 0 0 0.37 -0.89 0.22 0.22 0 0 0 -0.37 0 4.5 4.5 0 0 0 -0.27 0.78 0.16 0.16 0 0 0 0.27 0.11zm5.54 1.73a3.58 3.58 0 0 0 -0.46 -1 0.25 0.25 0 0 0 -0.28 0.31 5.06 5.06 0 0 0 0.44 0.83 0.18 0.18 0 0 0 0.3 -0.14zm2.38 -5.42a4 4 0 0 0 -0.46 -1 0.24 0.24 0 0 0 -0.28 0.31 4.65 4.65 0 0 0 0.43 0.83 0.19 0.19 0 0 0 0.31 -0.14z" stroke-width="1"></path>
    <path d="M194.83 153.76a21.07 21.07 0 0 0 -15.5 -0.2 2.92 2.92 0 0 0 -4.2 -1.09 3.75 3.75 0 0 0 -5.84 -1.74 8.23 8.23 0 0 0 -11.48 4.08 4.8 4.8 0 0 0 -6.23 -2c-7.79 -5.36 -13.07 2.05 -13.29 2.6 -5.83 -3.88 -9.49 0.86 -10 1.41a1.13 1.13 0 0 1 -1.07 0.4c-0.62 0 -50.84 0.54 -103.25 -0.68 1.85 -0.17 13.31 -2 12.56 -14.49 0.75 0 2.61 -0.08 2.62 -0.29a13.63 13.63 0 0 0 0 -1.69l2.85 -0.19c3.95 6 10.11 7.84 17.2 9 14 2.21 41.39 -1 41.43 -1a18.2 18.2 0 0 0 4 0.49c1.24 4.51 7.09 7.45 7.36 7.57a16.77 16.77 0 0 0 13.29 -0.14c0.33 -0.14 6.46 -2.62 6.66 -7.94a47.57 47.57 0 0 0 7.31 -1.12 6.08 6.08 0 0 0 3.57 -2.91c1.77 -3.33 0.3 -7.47 -1.4 -10.52a32.87 32.87 0 0 0 -3.46 -4.93c0.32 -1.08 1.63 -2.25 -0.31 -3.43a348.25 348.25 0 0 0 -5.28 -3.12 0.17 0.17 0 0 0 -0.19 0l-1 0.61a17 17 0 0 0 -4.85 -1.75 26 26 0 0 0 -6.49 -7c2 0.1 10.29 0.34 12.44 0.34a7.34 7.34 0 0 0 4.82 -1.62c1.7 -1.38 4.41 -8.37 5 -9 18.75 0.33 18.34 0.74 18.37 0.26l0.12 -3.84a0.2 0.2 0 0 0 -0.29 -0.19h-4.29c0.32 -1.47 3.92 -21.33 4.21 -23 0.09 -0.53 -0.9 0.88 2.29 -3.21a0.19 0.19 0 0 0 0 -0.27c-0.37 -0.29 -2 -2.08 -2 -2.08l2.31 -4.08a0.18 0.18 0 0 0 0 -0.22l-3.68 -2.86a0.19 0.19 0 0 0 -0.28 0c-0.62 1 -1.2 1.95 -1.76 2.94a11.77 11.77 0 0 0 -1.33 -0.4c0.76 -1.79 1.54 -3.65 1.83 -4.34a0.18 0.18 0 0 0 -0.13 -0.23c-1.77 -0.45 -3.55 -0.88 -5.32 -1.32a0.18 0.18 0 0 0 -0.21 0.12c-0.71 2.73 -1.42 5.46 -2.08 8.2 0.09 -1 0.84 -7.44 1.17 -9.6 0.08 -0.55 -0.86 0.09 -5.57 -0.91a0.16 0.16 0 0 0 -0.21 0.16c-0.13 1.8 -0.33 3.6 -0.38 5.41 -0.74 -6.87 -0.35 -7.41 -0.81 -7.29l-0.9 0.21a11.67 11.67 0 0 1 0 -2.13c0.59 0 2.18 0 2.17 -0.23 -0.06 -1.77 -1.27 -3.1 -4.28 -3.61 0.05 -0.06 -0.7 -1.47 -3.18 -1.64 -1.53 -0.1 -10.91 0.69 -14.06 0.71 -3.41 0 -3.22 1.8 -3.21 1.83 -3.19 0.28 -3.43 2.29 -3.17 3.2a9.75 9.75 0 0 0 1.88 0.16c0 0.15 1.81 13.36 2.32 16.41A12.32 12.32 0 0 0 111.38 83c-0.14 1.52 0 2.51 1.53 2.73 -2 0.71 -1.18 2.22 -1.18 2.22 -0.82 1.11 -1.58 2.25 -2.36 3.38a0.21 0.21 0 0 0 0.12 0.3l1.6 0.41a2.4 2.4 0 0 0 3.83 1.69 2.67 2.67 0 0 0 4.14 1.27 2.73 2.73 0 0 0 3 0.71 2.91 2.91 0 0 0 1.94 -2.48 17.07 17.07 0 0 0 2.81 -0.73 2.65 2.65 0 0 0 4.66 0.25 1.73 1.73 0 0 0 2.75 0.13 2.46 2.46 0 0 0 3.94 -0.25c0 0.35 0.25 3.22 0.34 4.31a5.49 5.49 0 0 1 -1.62 1.67c-3 1.85 -7.36 1 -9.79 1 -7.09 -0.17 -8.9 -0.29 -10.83 -1a4.69 4.69 0 0 1 -3.25 -4.3c0 -0.12 -0.2 -0.15 -0.22 0a4.43 4.43 0 0 0 2.23 4.1 9.53 9.53 0 0 0 4.51 1.27h-6.32c-0.1 0 -0.27 0.23 -0.27 0.33v3a0.22 0.22 0 0 0 0.21 0.21h25c-0.31 0.52 -1.54 3 -1.94 3.57 -2.56 4 -4.46 3.83 -8.4 3.82 -2 0 -13.26 -0.18 -13.27 -0.17a24.47 24.47 0 0 0 -6.77 -2c0.26 -0.62 1.71 -4.59 0.15 -6a3.53 3.53 0 0 0 -2 -0.82c-0.94 -0.13 -4.78 -0.15 -5.76 -0.1 1.49 -1.59 4.29 -4.51 3.29 -14.2 1.15 -0.18 2.3 -0.4 3.42 -0.68 0.1 0 0.3 -0.31 0.25 -0.44 -3.86 -9.89 -9 -19.78 -17.46 -26.25 -7 -5.32 -14.67 -7.16 -20.76 -6.43 -0.13 -0.14 -0.93 -1.09 -1 -1.19a7.41 7.41 0 0 0 1.34 -2c3 -6.44 -0.57 -14.56 -6.81 -16.15a10.51 10.51 0 0 0 -8.65 1.73c-2.15 1.55 -2.69 4.81 -3 6a1.66 1.66 0 0 1 -0.62 0.95c-0.23 0.15 -1.35 0.07 -1.29 0.44s0.11 0.61 0.15 0.91c0.64 0 1.27 0.06 1.9 0.11a21.12 21.12 0 0 0 0.25 3.93 1.58 1.58 0 0 0 1.18 1c0.12 0.32 -0.72 1.2 -0.76 1.46 -0.08 0.51 0.37 0.69 0.75 0.86 2 0.88 1.28 4.2 4.39 4.81 2.41 0.48 4.63 -1.23 5.59 -1.47 0.74 -0.18 1.18 0.47 1.52 1 -3.14 4.34 4.08 9.91 5.44 14.51 -4.27 1.29 -8.58 2.41 -12.83 3.75a0.12 0.12 0 0 0 -0.07 0.18 4.23 4.23 0 0 0 0.11 0.62 6.75 6.75 0 0 0 -3 0.81s-2.82 -1.58 -4.21 -2.34c0.47 -2.44 -1 -4.93 -2.93 -6.33C42.4 64.19 36.91 65 32.6 65c-0.17 0 -3 7.07 1.38 17.55a1.25 1.25 0 0 0 0.81 0.41c0.4 0 6.32 0.13 8.42 -0.64 -2.83 5.47 -19.06 39.44 -20.51 42.58C5.19 125.34 5 141.77 5 142.21a0.15 0.15 0 0 0 0.16 0.16H7.6S6.37 154 19.83 156.42q-6.36 -0.18 -12.72 -0.34a0.15 0.15 0 0 0 0 0.3c81.34 2.26 120.94 1.39 121.21 1.25s4.22 -5.55 10 -1.54c0.23 0.15 0.59 -0.06 0.41 -0.32s5.83 -7.77 12.6 -2.46a0.29 0.29 0 0 0 0.32 0 4.22 4.22 0 0 1 5.92 2.27 0.28 0.28 0 0 0 0.52 0 7.63 7.63 0 0 1 11.09 -4.33 0.27 0.27 0 0 0 0.32 0 3.16 3.16 0 0 1 5.19 1.77 0.27 0.27 0 0 0 0.45 0.12 2.35 2.35 0 0 1 3.78 0.82 0.26 0.26 0 0 0 0.32 0.18 20.91 20.91 0 0 1 15.44 0.1c0.32 0.13 0.45 -0.36 0.15 -0.48zm-62.5 -31.6c1.54 0.93 6.13 3.5 6 4.32a7.21 7.21 0 0 1 -0.6 1.47 27.67 27.67 0 0 0 -6.11 -5.38zm-1.63 0.47c6.49 3.47 13.8 14.28 12.37 18.83s-3.63 4.6 -4.44 4.86c-3.45 1.13 -35.51 1.52 -36.41 1.38a6.65 6.65 0 0 1 -4.56 -2.7c-0.55 -0.7 -3.72 -4.88 1.32 -13.69 3.53 -6.16 12.38 -10.55 19.65 -10.68 7.1 -0.13 10.7 1.26 12.07 2zm25.24 -44.94a14.67 14.67 0 0 0 -1.5 0.63c-0.2 -0.06 -4.95 -0.61 -5.08 -0.62v-4.82c0.4 -1 0.73 -2 1.08 -3a20.9 20.9 0 0 1 3.48 0.89c-0.32 1.12 -2.06 6.3 -2.14 6.9 0 0.18 0.21 0.32 0.31 0.13 0.3 -0.52 1.5 -3.18 1.82 -3.67a12.64 12.64 0 0 0 2.53 1.68c-0.03 0.35 -0.44 1.73 -0.5 1.88zm6.24 -4.55 -2.45 3.11c-0.43 0.12 -2.89 1.1 -3 1.15 0 0 3.5 -5.92 3.71 -6.26a12.43 12.43 0 0 0 1.74 2zM159 64.28l3.4 2.66c-1 1.69 -5.42 9.18 -5.84 10 0 0 0.2 -0.83 0.24 -1.2a0.19 0.19 0 0 0 -0.1 -0.17 33.06 33.06 0 0 1 -2.84 -1.82 75.28 75.28 0 0 1 5.14 -9.47zm-2.11 2.87c-1.26 2.27 -3.67 7.37 -3.78 7.55 0 -0.12 0.86 -2.78 1.2 -4 0 -0.11 -0.25 -0.28 -0.3 -0.3 0.14 -0.3 0.86 -2 1.62 -3.76zM152.22 61c1.64 0.42 3.28 0.85 4.93 1.26 -0.56 1.38 -3.21 7.47 -3.43 8.1a19.17 19.17 0 0 0 -3.35 -0.78 0.18 0.18 0 0 0 -0.22 0.12c-0.15 0.46 -0.31 0.91 -0.47 1.36 0.01 -0.18 1.79 -7.34 2.54 -10.06zm-6.66 -2.19a27.84 27.84 0 0 0 5.06 0.67c-1.42 9.1 -1.31 14.72 -1.26 7.49a0.21 0.21 0 0 0 -0.2 -0.2l-4 -0.35c-0.08 -0.58 0.24 -5.68 0.4 -7.66zm-0.39 8 3.78 0.35v10.57c-0.24 0 -0.93 0 -1 0.12a2.67 2.67 0 0 1 -2.34 2.13c-1.09 -5.17 -0.61 -1.98 -0.44 -13.22zm0.08 13.16a2.64 2.64 0 0 1 -2.2 -2.1 9.89 9.89 0 0 0 -1.18 -1s-1.58 -5.12 -2 -6l3.27 -1.3c0.78 3.43 1.34 6.9 2.11 10.35zm-5.75 -9.11c0.44 1 1.78 4.94 2.1 5.89L139 75c-0.31 -1.06 -3.56 -10.4 -4.28 -12.47l3.56 -1.63 3.27 8.83 -1.91 0.78a0.18 0.18 0 0 0 -0.14 0.3zm4.42 -13.72c0.26 5.13 0.84 9.57 0.87 9.46 0 2.82 -0.14 5.63 -0.14 8.45 -0.37 -1.94 -0.73 -3.88 -1.17 -5.8a0.19 0.19 0 0 0 -0.24 -0.13l-1.36 0.55c-0.53 -1.43 -2.78 -9.17 -3.41 -11.57 0.05 -0.1 3.71 -0.59 5.45 -1.01zM124 50.36c1.42 -0.07 9.91 -0.52 12.74 -0.65 1.38 -0.07 2.92 0 3.83 1.17 -0.59 0 -19.58 0.88 -19.73 0.9 0.38 -1.36 2.05 -1.36 3.16 -1.42zm-6.31 4.52a2.21 2.21 0 0 1 1.11 -2.15 5.77 5.77 0 0 1 2.78 -0.6c2.12 -0.09 17.93 -0.86 18.94 -0.81a5.43 5.43 0 0 1 3 0.91 3.07 3.07 0 0 1 1.29 2.05c-1.14 0.03 -25.15 0.46 -27.1 0.6zm-5.09 30.28a1 1 0 0 1 -0.71 -0.91 17.53 17.53 0 0 1 1 -5c2.39 -5.3 7.64 -7.9 13.42 -7.54 8.48 0.53 10.23 5.24 10.53 5.57 0 0 0.66 7.44 0.7 7.82 -1.94 -0.04 -24.45 0.2 -24.94 0.06zm6.68 9.32a0.23 0.23 0 0 0 -0.33 0 2.28 2.28 0 0 1 -3.69 -1.16 0.22 0.22 0 0 0 -0.32 -0.12 2.23 2.23 0 0 1 -3.52 -1.1c3.28 0.82 8.59 1.83 12.06 1.21 -1.09 2.69 -3.6 1.95 -4.2 1.17zm15.13 -2.13c-0.12 -0.12 -0.33 -0.16 -0.42 0a1.25 1.25 0 0 1 -2.3 -0.15 0.23 0.23 0 0 0 -0.44 0 2.31 2.31 0 0 1 -4.12 0.18 21.89 21.89 0 0 1 5.32 -1.81 8.14 8.14 0 0 1 5.46 1.54 2.1 2.1 0 0 1 -3.5 0.24zm-6.11 -1a29.38 29.38 0 0 1 -5.74 1.58c-2 0.18 -6.06 0.09 -12.67 -1.64 0.67 -1 1.34 -2 2 -3a2.43 2.43 0 0 0 1.78 1.4c2.37 0.47 3.4 -1.86 4.91 -1.53s1.64 2.67 3.14 2.67c0.72 0 1.26 -0.66 1.6 -1.3a3.74 3.74 0 0 1 1.26 -1.7c1.43 -0.81 3.08 0.92 6 -0.19a3.91 3.91 0 0 1 1.32 -0.38c0.73 0 1.31 0.57 2 0.89 1.67 0.82 2.66 -0.21 3.86 -0.81 0.12 1.42 0.24 2.84 0.35 4.26 -1.37 -0.96 -4.35 -2.92 -9.81 -0.26zm10.25 6.3c0 0.55 0.1 1.1 0.16 1.65 0 0.22 0.37 0.23 0.36 0 0 -0.77 -2 -23.34 -2.13 -25.18 0.08 0.06 5.75 3.71 5.75 3.72a2.91 2.91 0 0 0 2.81 2.53 2.83 2.83 0 0 0 2.8 -2.4c0.19 0 5.62 0.68 6.06 0.68 -0.16 0.35 -2.13 19.35 -2.36 20.87 -3.37 0 -14.13 0.07 -16.14 0.07a5.53 5.53 0 0 0 2.69 -1.95zm-25.24 5.17v-2.86c11.59 -0.2 19.09 0.54 21.42 0h25.53c0 1.11 -0.09 2.21 -0.13 3.32 -6.13 -0.19 -43.43 -0.53 -46.82 -0.47zm19.78 7.58a9.71 9.71 0 0 0 3.11 -2.83 38.08 38.08 0 0 0 2.39 -4.34h3.14c-0.84 1.21 -3.24 7 -4.31 8.27a5.6 5.6 0 0 1 -4.72 2c-2.07 0 -10.87 -0.31 -13.2 -0.3a27.63 27.63 0 0 0 -4.33 -2.55c0.92 0.14 15.83 0.93 17.92 -0.26zm-7.36 10.11a25.43 25.43 0 0 0 -25.61 8.56 20.81 20.81 0 0 0 -3 4.67c-4.71 10.52 2.29 13.55 2.46 13.65 -14.15 0.69 -31.26 3.57 -47.87 -0.78a16.31 16.31 0 0 1 -8.42 -5.75c-4.4 -5.52 -4.91 -13.35 -3.64 -20.26 2.21 -12.06 10.3 -26 5.24 -38.81a0.13 0.13 0 0 0 0 -0.06 10.94 10.94 0 0 0 2.29 -1.33c3.16 8.54 1.62 18.34 -0.42 27.26a140.79 140.79 0 0 0 -2.64 14.14c-2 15.59 6.82 18.75 8.72 19.49 12.69 4.94 22.48 2.77 26.88 1.16 9.79 -3.6 13.46 -9.42 14 -11.3 0.9 -3.45 -0.38 -8.13 -2 -11.39a89.46 89.46 0 0 0 -5.22 -8c1.34 0.37 14 -0.1 15.84 -0.25 2.37 -0.19 4.28 -0.6 5.31 -2.77 12.57 3.48 17.26 10.48 18.08 11.76zM58 82.86a1.59 1.59 0 0 0 2 -1.44c0.08 -0.51 0 -1.22 -0.55 -1.41s-2.59 -1.79 -2.76 -1.92a2.61 2.61 0 0 1 0.83 -0.32c0 0.07 0.48 1.12 0.58 1.26 0.47 0.6 11.42 2.38 14.38 2.54a5.32 5.32 0 0 0 3 4.44c-0.11 0 -19.32 8.29 -20.64 9.32a7 7 0 0 0 -2.78 5.76c2.68 12.17 7.24 15.79 13.27 24.23 4.09 5.72 7.74 11.84 8 13.1 0 0.17 0.4 0.17 0.81 0.11 0.06 0.15 0.7 1.63 0.81 1.82a28.49 28.49 0 0 0 -2.81 2.77c-0.09 0.18 0 0.3 0.06 0.37 -4.88 0.8 -12.09 -0.53 -12.83 -0.67 0.1 -0.14 0.72 -5.54 0.78 -5.86 1.75 -0.1 3.33 -0.23 3.66 -0.25 0.08 0 0.25 -0.18 0.25 -0.23 0.17 -3.17 0.52 -6.84 0.88 -10.37 -0.85 -1.22 -12.14 -14.09 -13.06 -23.58 -0.53 4.62 2.38 31.76 2.66 34.26 0 0.22 1 0.3 2.19 0.29 0 0.17 -0.1 2.06 -0.11 2.22a19.32 19.32 0 0 0 -3.62 1.49c-1.16 -0.56 -5.07 -2.72 -6.63 -6.25a25.15 25.15 0 0 1 -1.81 -10.61c0.13 -8.89 3.6 -16.72 4.65 -27.39 0.55 -5.52 0.29 -11.21 -1.73 -16.36a3.68 3.68 0 0 0 0.61 -0.65l5.75 1.06a2.14 2.14 0 0 0 1.06 -0.08 37.15 37.15 0 0 0 3.1 2.35zm0.91 -2.64c1.2 0.13 0.57 1.75 0.33 2a1 1 0 0 1 -1.55 0 1.41 1.41 0 0 1 1.22 -2zm18.45 57.4c0.14 -0.05 5.76 -2.42 5.74 -2.47 -4.62 -15 -10.92 -25.2 -9.21 -27.41 0.32 -0.41 5.25 -2.36 9.37 -1.74a3.82 3.82 0 0 0 2.53 5.61c2.55 3.47 5.16 6.93 6.59 11 2.06 5.91 0 10.27 -0.51 11 -2.14 2.87 -7.35 6.89 -13.46 8.68 -0.01 -0.03 -1 -4.5 -1.05 -4.67zm0 1.8c-0.7 0.21 -2.1 0.79 -2.13 0.8 -0.08 -0.2 -0.73 -1.58 -0.78 -1.71a21 21 0 0 0 2.6 -0.79c0.04 0.15 0.3 1.56 0.32 1.7zm-18.09 0.18c-0.06 0 -2.05 -0.34 -2.31 -0.32 0 -0.13 0.07 -2 0.07 -2.18 0.89 0 1.91 0 2.89 -0.11 -0.07 0.31 -0.59 2.41 -0.64 2.61zm47.35 -37.38a1.92 1.92 0 0 1 1.4 1.29c0.2 0.67 -0.44 4.78 -1.27 5.84a5.23 5.23 0 0 1 -3.65 1.65c-1.66 0.18 -11.79 0.56 -15.19 0.46 -0.6 0 -3.07 0 -4.27 -1.78a3.53 3.53 0 0 1 0 -3.69c6.43 -0.41 12.53 -0.65 16.08 -3.94a63.86 63.86 0 0 1 6.91 0.17zm-55.11 -54a26.19 26.19 0 0 1 -0.36 -4c2.1 0.18 8.7 0.66 9.9 0.64 -0.83 2.8 -2.44 3.27 -2.92 3.46a11.21 11.21 0 0 1 -5.33 0.55 1.6 1.6 0 0 1 -1.28 -0.61zM58 56a3.24 3.24 0 0 1 -3.14 -1.36c-0.7 -1.11 -1 -2.81 -2.3 -3.46 -0.3 -0.14 -0.81 -0.24 -0.58 -0.68s0.8 -0.74 0.74 -1.25a12.55 12.55 0 0 0 5 -0.39c0.95 -0.4 2.48 -0.6 3.71 -4h0.26c-0.21 2.18 -0.3 6.55 1.31 8a3.46 3.46 0 0 0 4.65 -0.36c0.07 0.09 0.6 0.78 0.83 1a7 7 0 0 0 -4.46 2c-1.52 -2.5 -3.12 0.24 -6.02 0.5zm11.51 14.64a0.17 0.17 0 0 0 0.11 -0.2C69 68 67.21 66 65.88 64s-3.07 -4.3 -2.32 -6.78c0.56 -1.85 2.38 -2.71 4.14 -3.08 5.17 -1.08 13.14 0.2 20.5 5.35 9 6.34 14.36 16.52 18.4 26.84a76.92 76.92 0 0 1 -29.34 0.06C75 85.71 73 84 72.8 81.59a13.52 13.52 0 0 0 4.2 -0.32c2.62 -0.7 12.94 -8.88 3.31 -21.61 -0.14 -0.19 -0.39 0.06 -0.26 0.25 8.11 11.73 -0.14 19.83 -2.61 20.72 -4.36 1.55 -19 -1.73 -19 -1.72a25.88 25.88 0 0 1 -1.79 -4.57c4.29 -1.14 8.55 -2.5 12.86 -3.7zM53.6 76.19a20.11 20.11 0 0 1 3 -1c0.15 0.5 0.74 1.9 0.83 2.12A3.26 3.26 0 0 0 55 79.57a0.91 0.91 0 0 1 -0.27 0.5c-0.51 0.35 -2.23 -0.25 -2.32 -1.78a2.48 2.48 0 0 1 1.19 -2.1zm-0.38 -0.26c-2.09 1.84 -1 3.6 -0.33 4.12 -2.06 -0.38 -11.62 -2.18 -12.44 -2.64 -3.45 -2 -0.07 -6.85 2.34 -6.82 1.14 0.02 1.58 0.63 10.43 5.34zM32 68.9a13.91 13.91 0 0 1 0.52 -3.16c0 0.23 1.62 16.11 1.64 16.31A28.59 28.59 0 0 1 32 68.9zm2.62 13.64s-1.69 -16.86 -1.74 -17.13c2.89 0 5.81 -0.3 8.67 0.19 5.47 1 7.77 4.39 7.53 7.68 -0.86 -0.47 -5.39 -2.92 -6 -3a3.27 3.27 0 0 0 -2.77 1.12c-1.38 1.34 -2.51 3.71 -1.16 5.46a4.57 4.57 0 0 0 2.38 1.43c1.11 0.33 5.16 1 6 1.19 -3 3.76 -12.89 3.06 -12.92 3.06zm8.89 -0.18a10.59 10.59 0 0 1 1.13 -0.52c3 7.76 1.12 16.21 -1.33 24.16 -2.37 7.7 -5.31 15.37 -4.61 23.5a22.28 22.28 0 0 0 3 9.95l-2.59 0.26a16.19 16.19 0 0 0 -16 -14.81c2.6 -5.51 18.89 -39.35 20.39 -42.54zM5.36 142.11c1 -11.36 11 -19 21.66 -16.22a15.64 15.64 0 0 1 11.63 15.64c-0.1 0 -28.29 0.17 -33.29 0.58zm13.84 3.28c-1.11 -0.88 -1.7 -3.23 -1.81 -3.25h9.12c-0.15 2.62 -1.25 3.75 -3.31 4.25a4.75 4.75 0 0 1 -4 -1z" stroke-width="1"></path>
  </g>
</svg>