<svg xmlns="http://www.w3.org/2000/svg" viewBox="0 0 200 200" id="Fast-Food--Streamline-Seoul">
  <desc>
    Fast Food Streamline Illustration: https://streamlinehq.com
  </desc>
  <title>fast-food</title>
  <g>
    <path d="M94.63 40.61c2.93 6.39 2.83 6.39 3.45 6.92a3.43 3.43 0 0 0 1.52 0.47 127.46 127.46 0 0 1 30.62 9.18c-1 -2.61 1 -5.42 -2.37 -7.1C118 44.36 107.5 38.56 96.15 39Z" fill="#ffe7ab" stroke-width="1"></path>
    <path d="M130.7 57c-0.5 -1.36 -0.17 -2.81 -0.32 -4.21a3.93 3.93 0 0 0 -2 -3.06c-10.58 -6.08 -19.54 -11.39 -31.73 -11.39a1.15 1.15 0 0 0 -0.81 0.16 16.75 16.75 0 0 0 -1.52 1.63 0.78 0.78 0 0 0 -0.12 0.75l1.86 4c0.46 1 0.84 2.37 1.77 3 2.21 1.4 11.43 0.58 32.14 9.69 0.35 0.15 0.9 -0.12 0.73 -0.57ZM100 47.46a2.67 2.67 0 0 1 -2 -0.91c-0.27 -0.49 -2.3 -4.91 -2.78 -5.95l1.18 -1.27c11.29 -0.3 21.56 5.41 31 10.94a4.19 4.19 0 0 1 1.6 1.25c0.84 1.49 0.16 2.24 0.57 4.72A128.8 128.8 0 0 0 100 47.46Z" fill="#5e503b" stroke-width="1"></path>
    <path d="M62 38.71a11.58 11.58 0 0 1 -3.92 -1.15c-0.43 5.27 -0.7 5.28 0 6.57 0.88 1.66 1.79 3.32 2.83 4.89a67.94 67.94 0 0 0 24 -9.28 2.39 2.39 0 0 0 0.54 -0.46 15.27 15.27 0 0 0 1.55 -4.4c-8.22 2 -16.48 4.3 -25 3.83Z" fill="#ffe7ab" stroke-width="1"></path>
    <path d="M86.89 34.44c-9.29 2.3 -14 3.6 -22.08 3.87a12.52 12.52 0 0 1 -6.37 -1.11 0.51 0.51 0 0 0 -0.85 0.36c-0.49 6.31 -1.46 4.79 2.9 11.76a0.55 0.55 0 0 0 0.57 0.23c8.53 -1.8 14.86 -3.8 22.35 -8.21a8.42 8.42 0 0 0 2.5 -1.77 11 11 0 0 0 1 -2.4 12.14 12.14 0 0 0 0.59 -2.12 0.5 0.5 0 0 0 -0.61 -0.61Zm-1.52 4.25c-0.42 0.83 -1.51 1.3 -2.28 1.77a65.74 65.74 0 0 1 -21.92 8 25.76 25.76 0 0 1 -2.94 -5.3 8.89 8.89 0 0 1 0.12 -3c0 -0.63 0.11 -1.24 0.17 -1.86a13.51 13.51 0 0 0 4.3 1c8.14 0.3 16 -1.78 23.64 -3.69a15.7 15.7 0 0 1 -1.09 3.08Z" fill="#5e503b" stroke-width="1"></path>
    <path d="M133 63.85c0.29 2 0.31 7.19 0.6 9.18 5.65 1.64 10.29 5.6 15.45 8.44a1.6 1.6 0 0 0 0.85 0.28c0.47 -0.08 0.37 -0.08 3.68 -2.25Z" fill="#ffe7ab" stroke-width="1"></path>
    <path d="M97.05 35.32a34.29 34.29 0 0 0 -2.42 5.43 152 152 0 0 1 34.64 12.45l1.29 -4.9c-0.1 -0.05 -14.86 -10.6 -33.51 -12.98Z" fill="#fffda9" stroke-width="1"></path>
    <path d="M130.32 47.31c-9.8 -6.12 -21.86 -11 -33.27 -12.49a0.48 0.48 0 0 0 -0.43 0.25 34.88 34.88 0 0 0 -2.47 5.55 0.51 0.51 0 0 0 0.35 0.62 151.36 151.36 0 0 1 34.5 12.4 0.51 0.51 0 0 0 0.73 -0.3l1.29 -4.9c0.12 -0.36 -0.38 -0.93 -0.7 -1.13Zm-1.42 5.17a152.74 152.74 0 0 0 -33.67 -12.09 32.8 32.8 0 0 1 2 -4.53c12.1 1.81 22.21 6 32.74 12.47Z" fill="#5e503b" stroke-width="1"></path>
    <path d="M162.31 78.58a104 104 0 0 0 -4.86 -30.42 1.77 1.77 0 0 0 -2 -1.49l-5.81 -0.26c2.49 18.28 2.05 6.91 4.56 35.57l6.9 -2a1.65 1.65 0 0 0 1.1 -0.67 1.71 1.71 0 0 0 0.11 -0.73Z" fill="#fffda9" stroke-width="1"></path>
    <path d="M162.3 69.09a105.49 105.49 0 0 0 -4 -19.91 6.93 6.93 0 0 0 -0.89 -2.2 2.27 2.27 0 0 0 -1.8 -0.77q-3 -0.21 -6 -0.27a0.49 0.49 0 0 0 -0.5 0.5 0.5 0.5 0 0 0 0.53 0.47l4.84 0.22a4.14 4.14 0 0 1 2 0.23c0.57 0.38 0.71 1.46 0.89 2.07A101.24 101.24 0 0 1 161.82 78c0 0.43 0.13 1 -0.15 1.24s0.11 0.08 -7 2.08q-0.73 -8.37 -1.56 -16.72c-0.06 -0.64 -1.06 -0.64 -1 0q0.89 8.67 1.65 17.4a0.51 0.51 0 0 0 0.64 0.48l5.17 -1.48c1.1 -0.32 3 -0.46 3.21 -1.86a88.73 88.73 0 0 0 -0.48 -10.05Z" fill="#5e503b" stroke-width="1"></path>
    <path d="M149.41 46.38a30.7 30.7 0 0 0 -4.27 4.62 2.94 2.94 0 0 0 -0.72 1.48 3.34 3.34 0 0 0 0.36 1.49 63.07 63.07 0 0 1 3.33 10.58l8.09 -1.37a91.41 91.41 0 0 0 -6.79 -16.8Z" fill="#ffe7ab" stroke-width="1"></path>
    <path d="M156.67 63.08a92.72 92.72 0 0 0 -6.84 -16.93 0.51 0.51 0 0 0 -0.79 -0.1c-1.45 1.34 -4.07 3.94 -4.93 5.72a3 3 0 0 0 0.2 2.35 66.16 66.16 0 0 1 3.33 10.57c0.14 0.63 1.1 0.36 1 -0.26a63.26 63.26 0 0 0 -3 -9.7c-0.28 -0.71 -0.85 -1.62 -0.66 -2.4a6.07 6.07 0 0 1 1.36 -2 33.38 33.38 0 0 1 2.93 -3.13 91.14 91.14 0 0 1 6.45 16.15 0.51 0.51 0 0 0 0.63 0.36 0.52 0.52 0 0 0 0.32 -0.63Z" fill="#5e503b" stroke-width="1"></path>
    <path d="m162.18 75.53 -8.88 6.06 5.55 3.17a1.09 1.09 0 0 0 1.49 -0.1 40.26 40.26 0 0 1 12.55 -6l1.77 -6.32Z" fill="#fffda9" stroke-width="1"></path>
    <path d="m174.13 72.32 -1.65 5.88a41.38 41.38 0 0 0 -9.22 4 34.65 34.65 0 0 0 -3.16 2c-0.42 0.27 -0.56 0.44 -1.42 -0.15l-4.47 -2.55 8.2 -5.55c0.52 -0.36 0 -1.23 -0.51 -0.87l-8.9 6.1a0.5 0.5 0 0 0 0 0.86l5.44 3.11a1.74 1.74 0 0 0 2.1 0A37 37 0 0 1 172 79.43c0.34 -0.11 0.92 -0.15 1.18 -0.41a3.8 3.8 0 0 0 0.46 -1.39l1.46 -5.15c0.15 -0.56 -0.76 -1.1 -0.97 -0.16Z" fill="#5e503b" stroke-width="1"></path>
    <path d="M169.78 67.43a1 1 0 0 0 -1.36 -0.24 41.65 41.65 0 0 0 -15.4 13L157 84a62.37 62.37 0 0 1 17.82 -11.61Z" fill="#ffe7ab" stroke-width="1"></path>
    <path d="m175.14 72 -4.83 -4.77a1.64 1.64 0 0 0 -2.14 -0.49 42.15 42.15 0 0 0 -15.57 13.19c-0.38 0.52 0.49 1 0.86 0.5h-0.05c4.39 -6.06 9.05 -9.37 14.71 -12.58 0.51 -0.29 1 -0.54 1.39 0l4.4 4.34a63.06 63.06 0 0 0 -17.3 11.43c-0.47 0.44 0.23 1.15 0.71 0.71A62.61 62.61 0 0 1 175 72.76a0.5 0.5 0 0 0 0.14 -0.76Z" fill="#5e503b" stroke-width="1"></path>
    <path d="M168 52.44a41 41 0 0 0 -2 -5.39L149.73 70a53.11 53.11 0 0 0 3.5 6.3q6.77 -11.22 14.46 -21.86a1.88 1.88 0 0 0 0.31 -2Z" fill="#fffda9" stroke-width="1"></path>
    <path d="M168.48 52.08a41 41 0 0 0 -2 -5.29c-0.27 -0.58 -1.14 -0.08 -0.87 0.5a29.59 29.59 0 0 1 1.78 4.51 3.89 3.89 0 0 1 0.35 1.54c-0.38 1.23 -5.05 6.52 -14.47 21.93a52.16 52.16 0 0 1 -3.05 -5.59c-0.28 -0.58 -1.14 -0.07 -0.87 0.51a55.9 55.9 0 0 0 3.49 6.29 0.51 0.51 0 0 0 0.87 0c4.87 -8.11 8.47 -13.28 13.41 -20.39a7.61 7.61 0 0 0 1.59 -2.55 3 3 0 0 0 -0.23 -1.46Z" fill="#5e503b" stroke-width="1"></path>
    <path d="m159.15 43.89 -9.51 19.22 3.21 7.89 13.25 -24a12.92 12.92 0 0 1 -6.95 -3.11Z" fill="#ffe7ab" stroke-width="1"></path>
    <path d="M166.34 46.54a13 13 0 0 1 -6.84 -3.07 0.51 0.51 0 0 0 -0.79 0.11l-9.5 19.28c-0.28 0.57 0.58 1.08 0.87 0.5l9.24 -18.69a13.69 13.69 0 0 0 6 2.72l-12.9 23.33c-0.31 0.56 0.55 1.06 0.86 0.5l13.25 -24a0.5 0.5 0 0 0 -0.19 -0.68Z" fill="#5e503b" stroke-width="1"></path>
    <path d="M155.25 74.74a42.3 42.3 0 0 0 -20.16 -15.67L133.16 67a47.23 47.23 0 0 1 20.4 13.37 21.68 21.68 0 0 0 1.69 -5.63Z" fill="#fffda9" stroke-width="1"></path>
    <path d="M155.69 74.47a43.11 43.11 0 0 0 -20.47 -15.88 0.49 0.49 0 0 0 -0.61 0.33l-1.94 7.94a0.52 0.52 0 0 0 0.35 0.61 46.58 46.58 0 0 1 20.19 13.24 0.5 0.5 0 0 0 0.83 -0.22 33.86 33.86 0 0 0 1.61 -5 0.47 0.47 0 0 0 -0.08 -0.41 0.42 0.42 0 0 0 0.12 -0.61Zm-1 0.75a36.56 36.56 0 0 1 -1.3 4.21 48 48 0 0 0 -19.64 -12.78l1.69 -6.93A42.35 42.35 0 0 1 154.81 75a0.49 0.49 0 0 0 -0.16 0.22Z" fill="#5e503b" stroke-width="1"></path>
    <path d="M155.54 60.41c-0.35 -0.64 -4.54 -3.27 -6.13 -3.92l3.14 27.11a18 18 0 0 1 5.46 0.72c0.78 -7.13 -0.71 -20.64 -2.47 -23.91Z" fill="#fffda9" stroke-width="1"></path>
    <path d="M156.9 63.12c-0.32 -1.31 -0.61 -2.79 -1.71 -3.65A24.65 24.65 0 0 0 149.5 56c-0.59 -0.25 -0.85 0.72 -0.27 1a25.12 25.12 0 0 1 5 3 2.39 2.39 0 0 1 1 1.11C156.91 65 158 77 157.48 83.68a19.18 19.18 0 0 0 -5 -0.58 0.5 0.5 0 0 0 0 1 18.87 18.87 0 0 1 5.33 0.71 0.51 0.51 0 0 0 0.63 -0.49 72.94 72.94 0 0 0 -1.54 -21.2Z" fill="#5e503b" stroke-width="1"></path>
    <path d="M137.67 43.65a1 1 0 0 0 -0.28 -0.57c-0.37 -0.25 -0.07 -0.16 -8.35 -0.34l4.37 32.42a23.15 23.15 0 0 1 6 1.08 84.22 84.22 0 0 0 -1.74 -32.59Z" fill="#fffda9" stroke-width="1"></path>
    <path d="M140.69 59.31a86.71 86.71 0 0 0 -2.13 -14.5 7.21 7.21 0 0 0 -0.53 -1.88 1.44 1.44 0 0 0 -1.38 -0.61c-2.13 0 0.62 -0.08 -7.55 -0.17 -0.36 0 -1.18 1 0.13 1.09l6.88 0.09c0.31 0 0.85 -0.1 1 0.23a3.54 3.54 0 0 1 0.22 0.85A83.81 83.81 0 0 1 139 75.54a22.42 22.42 0 0 0 -5.68 -0.94c-0.65 0 -0.64 1 0 1a21.93 21.93 0 0 1 6 1.06 0.49 0.49 0 0 0 0.61 -0.33 83.38 83.38 0 0 0 0.76 -17.02Z" fill="#5e503b" stroke-width="1"></path>
    <path d="M129 42.91a14.42 14.42 0 0 1 -2.8 6.09c3.18 7.31 4.65 15.66 6.43 23.41l2.16 2.59c-0.19 -11 -0.92 -22.26 -5.79 -32.09Z" fill="#ffe7ab" stroke-width="1"></path>
    <path d="M129.46 42.66a0.5 0.5 0 0 0 -0.91 0.12 13.16 13.16 0 0 1 -2.36 5.37c-0.19 0.27 -0.5 0.55 -0.48 0.9a6.3 6.3 0 0 0 0.61 1.5c2.63 6.62 4.45 16.17 5.79 22 0.14 0.62 1.11 0.36 1 -0.27 -1.8 -7.82 -3.19 -15.77 -6.33 -23.21a14.67 14.67 0 0 0 2.39 -4.67c4.28 9.5 5 20.23 5.12 30.6a0.5 0.5 0 0 0 0.5 0.5 0.51 0.51 0 0 0 0.5 -0.5c-0.2 -11.22 -0.92 -22.33 -5.83 -32.34Z" fill="#5e503b" stroke-width="1"></path>
    <path d="M117.31 51.31a18 18 0 0 0 -4.37 0.62c6.88 4.48 22.69 19.36 30.45 30.18a5 5 0 0 0 3.84 -0.19c-6.56 -10.24 -21.89 -27.48 -29.92 -30.61Z" fill="#fffda9" stroke-width="1"></path>
    <path d="M147.67 81.67c-9 -13.66 -26.14 -31.18 -31.09 -30.86a18.76 18.76 0 0 0 -3.81 0.42 0.5 0.5 0 0 0 -0.35 0.61c0.15 0.73 0.37 0.36 5 4.1a180.85 180.85 0 0 1 20.87 20.55c3.5 4.12 4.25 5.42 4.75 6 1 0.88 3.07 0.32 4.33 -0.09a0.51 0.51 0 0 0 0.3 -0.73Zm-3.48 0.17c-0.52 -0.11 -0.42 -0.15 -2.1 -2.33 -8 -10.43 -20.83 -22.43 -28.09 -27.5a17.83 17.83 0 0 1 2.42 -0.21 2.5 2.5 0 0 1 1.12 0.11c9 4.33 23 20.74 28.92 29.74a4.69 4.69 0 0 1 -2.27 0.19Z" fill="#5e503b" stroke-width="1"></path>
    <path d="M129.55 79.82a110.69 110.69 0 0 0 -19.38 -21 20.58 20.58 0 0 1 2.6 -7.07c6.82 4.35 23 19.59 30.81 30.54Z" fill="#ffe7ab" stroke-width="1"></path>
    <path d="M144 82.11c-8.77 -12 -23.21 -25.56 -31 -30.75a0.51 0.51 0 0 0 -0.69 0.18 25.42 25.42 0 0 0 -2.65 7.18 0.52 0.52 0 0 0 0.13 0.49A110.82 110.82 0 0 1 129 80a0.45 0.45 0 0 0 0.35 0.33l14 2.51c0.45 0.08 0.91 -0.34 0.65 -0.73Zm-14.14 -2.74a114.11 114.11 0 0 0 -19.1 -20.71 23.51 23.51 0 0 1 2.24 -6.14c8 5.54 22.1 19.12 29.5 29.1Z" fill="#5e503b" stroke-width="1"></path>
    <path d="m149.15 56.62 -4.91 4.1a48.31 48.31 0 0 1 5.66 20.59l5.1 2.46c0.39 -7.15 -0.48 -19.47 -5.85 -27.15Z" fill="#ffe7ab" stroke-width="1"></path>
    <path d="M149.53 56.38a0.51 0.51 0 0 0 -0.79 -0.1l-4.91 4.1a0.51 0.51 0 0 0 -0.07 0.61 43.92 43.92 0 0 1 5.65 20.32 0.5 0.5 0 0 0 1 0 47.06 47.06 0 0 0 -5.53 -20.46l4.12 -3.48a30.85 30.85 0 0 1 4.06 9.94 59.53 59.53 0 0 1 1.37 16.47 0.5 0.5 0 0 0 1 0c0.57 -8.9 -0.78 -19.98 -5.9 -27.4Z" fill="#5e503b" stroke-width="1"></path>
    <path d="M84.41 30.38 87 34.92c-6.31 4.08 -15.43 7.32 -23.8 8.83a1.67 1.67 0 0 1 -0.83 0c-0.35 -0.12 -0.56 -0.47 -0.77 -0.77a36.63 36.63 0 0 1 -3.35 -5.61 59.12 59.12 0 0 0 26.16 -6.99Z" fill="#fffda9" stroke-width="1"></path>
    <path d="M87.57 34.69 85 30.16a0.51 0.51 0 0 0 -0.68 -0.18 59.53 59.53 0 0 1 -25.73 6.89 0.54 0.54 0 0 0 -0.56 0.91 38.86 38.86 0 0 0 3.25 5.4 2.47 2.47 0 0 0 1 1 2.83 2.83 0 0 0 1.63 0 67.92 67.92 0 0 0 23.49 -8.8 0.51 0.51 0 0 0 0.17 -0.69Zm-23.38 8.38c-0.56 0.11 -1.36 0.42 -1.82 0a8.11 8.11 0 0 1 -1 -1.47 28.5 28.5 0 0 1 -2.24 -3.76A60.55 60.55 0 0 0 84.25 31l2.11 3.7c-5.43 3.42 -12.25 6.38 -22.17 8.37Z" fill="#5e503b" stroke-width="1"></path>
    <path d="M152.65 114.73c0.31 5.68 1.62 10 3.07 15.55 10 -4.29 16 -15.6 16.09 -15.7 -7.2 -0.14 -12.39 0.29 -19.16 0.15Z" fill="#fedaf6" stroke-width="1"></path>
    <path d="m171.9 114.13 -19.25 0.1a0.5 0.5 0 0 0 -0.5 0.5 71.74 71.74 0 0 0 3.09 15.68 0.51 0.51 0 0 0 0.73 0.3c6.88 -3.14 12.81 -9.46 16.31 -15.73 0.22 -0.41 0.04 -0.86 -0.38 -0.85Zm-15.81 15.49a73.72 73.72 0 0 1 -2.82 -14.33c5.93 0.09 11.85 -0.25 17.78 -0.17 -3.23 5.64 -8.48 11.37 -14.96 14.5Z" fill="#5e503b" stroke-width="1"></path>
    <path d="M117.86 134.83c2.6 -18.62 3.78 -40.88 8.41 -59.12 0 0 -8.84 5.39 -12.86 8.61a5.67 5.67 0 0 0 -1.67 1.68c-0.61 1.3 0.07 -3.4 -6.72 57a208.65 208.65 0 0 0 31 4.19 8.65 8.65 0 0 0 3 -0.17 9.45 9.45 0 0 0 2.86 -1.75 54.17 54.17 0 0 1 10.66 -6.41Z" fill="#fedaf6" stroke-width="1"></path>
    <path d="M117.86 134.83c2.61 -18.66 3.78 -41 8.44 -59.27 19.59 1.44 30.78 3.49 43.49 8.35a1.35 1.35 0 0 1 0.82 2c-5.46 15.69 -12.59 37.2 -17.77 53Z" fill="#ffaad7" stroke-width="1"></path>
    <path d="M170.52 83.71a9.83 9.83 0 0 0 -2 -0.8c-13.69 -5.15 -27.8 -6.91 -42.18 -7.85a0.49 0.49 0 0 0 -0.48 0.37c-4.82 19.77 -5.23 35.41 -8.41 59a0.57 0.57 0 0 0 0.53 0.89l34.78 4.07a0.5 0.5 0 0 0 0.48 -0.37c2.2 -6.67 16 -47.87 17.13 -51.14 0.42 -1.19 1.63 -3.25 0.15 -4.17Zm-0.35 1.69c-0.13 0.49 1.82 -5.61 -17.76 53l-34 -4c2.59 -19 3.7 -40 8.25 -58.28 13.25 1 24.7 2.27 37 6.19 1.6 0.52 4.8 1.63 5.94 2.11a0.77 0.77 0 0 1 0.57 0.98Z" fill="#5e503b" stroke-width="1"></path>
    <path d="M69.46 61.39c-15.92 -5.33 -29 9.68 -33.42 25.86 -4.72 18 -0.63 39.06 12.51 52.05a27.71 27.71 0 0 0 14.7 7.7 19.25 19.25 0 0 0 10.85 -1.45c3.11 -1.43 6.33 -1 9.39 -2.55Z" fill="#ffe7ab" stroke-width="1"></path>
    <path d="M83.22 142.52c-2.29 1.14 -4.86 1.18 -7.29 1.81 -1.19 0.31 -2.26 0.86 -3.41 1.27a20.8 20.8 0 0 1 -16.92 -1.8C39.44 135 32.66 112.54 35.16 94s16.62 -38.11 34.2 -32.1c0.62 0.2 0.88 -0.77 0.27 -1 -8.9 -3 -17.78 0.44 -23.86 7.27A46.66 46.66 0 0 0 34.85 90a59.5 59.5 0 0 0 1.8 30.53c4.4 13.47 14.75 26.27 28.83 27.11a19.93 19.93 0 0 0 7.34 -1.09 35 35 0 0 1 3.59 -1.31c2.54 -0.62 4.51 -0.51 7.32 -1.86 0.58 -0.28 0.07 -1.15 -0.51 -0.86Z" fill="#5e503b" stroke-width="1"></path>
    <path d="M64.17 61.15c-6.76 1.63 -12.25 6.94 -15.33 13.17C40 92.14 45.5 129.11 62.72 142.2c5 3.77 11.42 5.85 17.53 4.65 4.45 -0.87 8.39 -3.35 12.21 -5.78Z" fill="#b39144" stroke-width="1"></path>
    <path d="M92.21 140.63c-3.48 2.3 -7.14 4.54 -11.24 5.54a19.86 19.86 0 0 1 -11.66 -0.89c-14.73 -5.49 -22.23 -25.81 -23.65 -41.14a81.65 81.65 0 0 1 -0.32 -12.8 48.23 48.23 0 0 1 2.24 -12.66c2.68 -8 8.48 -15 16.72 -17.06 0.62 -0.15 0.36 -1.11 -0.27 -1v0.05c-7.34 1.8 -13.06 7.67 -16.1 14.41 -10.57 23.39 1.35 74.29 30.27 72.54 5.42 -0.42 10 -3.27 14.52 -6.13 0.54 -0.34 0 -1.2 -0.51 -0.86Z" fill="#5e503b" stroke-width="1"></path>
    <path d="M83.41 59.05a33.6 33.6 0 0 0 -22.95 -4.56c-1.44 0.23 -3.28 1.23 -2.79 2.61a2.62 2.62 0 0 0 1.11 1.15 41.44 41.44 0 0 0 5.9 3.28 20.16 20.16 0 0 0 -11.85 5.76A33.21 33.21 0 0 0 57.12 69 28.7 28.7 0 0 0 45 79a13.48 13.48 0 0 0 6.88 2.73 25.2 25.2 0 0 0 -9.8 8.49c-0.51 0.77 -1 1.76 -0.53 2.56a2.6 2.6 0 0 0 1.41 1c2.36 0.9 4.77 1.68 7.21 2.35l-6.8 3.44c-1.16 0.6 -2.49 1.47 -2.44 2.77a3.28 3.28 0 0 0 1.55 2.26 30.32 30.32 0 0 0 10 5.2 10.45 10.45 0 0 0 -3.24 2 3.56 3.56 0 0 0 -1 3.52c0.74 2.2 3.72 2.43 6 2.25A7.75 7.75 0 0 0 52 120a2.65 2.65 0 0 0 0.24 3.12c0.74 0.61 0.69 0.5 7.83 2.78 -0.42 1.83 -2.87 2.48 -3.6 4.21s0.8 3.84 2.66 4.38 3.83 0 5.68 -0.56c-0.4 1.87 -3.43 2.53 -3.31 4.44 0.06 1 1 1.67 1.88 2.09a12.1 12.1 0 0 0 7.84 0.85 2.26 2.26 0 0 1 1.62 0c1.28 0.72 -0.06 2.68 0.22 4.11 0.32 1.66 2.56 1.92 4.24 1.76 8.12 -0.75 16.49 -2.08 23.3 -6.55Z" fill="#cbdd8a" stroke-width="1"></path>
    <path d="M100.25 140.25c-6.42 4.34 -14.29 5.61 -21.87 6.37 -1.35 0.13 -3.13 0.45 -4.34 -0.38 -1.76 -1.21 1 -4.13 -1 -5.31 -0.79 -0.46 -1.73 -0.08 -2.55 0.07a11.67 11.67 0 0 1 -5.83 -0.47 4.68 4.68 0 0 1 -2.57 -1.53 1.4 1.4 0 0 1 0.39 -1.79c1 -1 2.35 -1.62 2.71 -3.05a0.51 0.51 0 0 0 -0.35 -0.62c-0.45 -0.13 -3 1.15 -5.45 0.61a3.51 3.51 0 0 1 -2.68 -2.65c-0.21 -1.3 0.85 -2.14 1.75 -2.87a5 5 0 0 0 2 -2.51 0.51 0.51 0 0 0 -0.35 -0.61l-3.7 -1.26a20.81 20.81 0 0 1 -3.41 -1.2 2 2 0 0 1 -0.69 -2.66 6.58 6.58 0 0 1 2.28 -2.32c0.35 -0.26 0.29 -1 -0.26 -0.93 -1.69 0.12 -4.33 0.21 -5.35 -1.46a2.86 2.86 0 0 1 0.56 -3.31 9.44 9.44 0 0 1 3.27 -2.11c0.41 -0.19 0.26 -0.79 -0.12 -0.91A28.18 28.18 0 0 1 42 103.52c-1.61 -1.84 0.91 -3.08 2.31 -3.8l6.13 -3.16a0.5 0.5 0 0 0 -0.12 -0.91c-2.14 -0.6 -4.24 -1.26 -6.32 -2 -0.84 -0.31 -2.27 -0.6 -2.09 -1.77a6.15 6.15 0 0 1 1.46 -2.52 24.88 24.88 0 0 1 8.8 -7.16c0.49 -0.25 0.19 -0.89 -0.26 -0.94a13 13 0 0 1 -6.19 -2.35 28.47 28.47 0 0 1 11.65 -9.44c0.42 -0.19 0.25 -0.8 -0.12 -0.92a31.91 31.91 0 0 1 -3.55 -1.4 19.67 19.67 0 0 1 11 -5.12c0.42 -0.06 0.76 -0.7 0.25 -0.93 -1.13 -0.52 -2.24 -1.08 -3.32 -1.69a15.55 15.55 0 0 1 -3.13 -2c-0.83 -0.81 -0.06 -1.59 0.74 -2a8.77 8.77 0 0 1 3.15 -0.68 33 33 0 0 1 20.81 4.76c0.55 0.33 1 -0.53 0.5 -0.87a34.06 34.06 0 0 0 -22.49 -4.74c-1.53 0.21 -4.58 1 -4 3.21 0.32 1.26 1.94 2 3 2.59s1.9 1.12 2.88 1.63A20.79 20.79 0 0 0 52.5 67a0.49 0.49 0 0 0 0.1 0.78c1 0.51 2.12 1 3.22 1.38a29.57 29.57 0 0 0 -11.19 9.63 0.52 0.52 0 0 0 0.18 0.69A14.3 14.3 0 0 0 50.38 82a25.67 25.67 0 0 0 -6.69 5.41c-0.54 0.61 -1 1.26 -1.52 1.91A6.39 6.39 0 0 0 41 91.58c-0.37 1.77 1.2 2.41 2.57 2.91 1.75 0.65 3.53 1.23 5.32 1.76l-4.45 2.3c-1.29 0.66 -3 1.32 -3.64 2.71s0.31 2.82 1.44 3.73a28.39 28.39 0 0 0 9 4.92 9.47 9.47 0 0 0 -2.6 2.07 3.76 3.76 0 0 0 -0.59 3.94c0.8 1.79 2.91 2.23 4.81 2.27a7.56 7.56 0 0 0 -1.38 1.7 3.21 3.21 0 0 0 0.13 3.25c0.77 1.07 2.37 1.33 3.55 1.71l4.25 1.37c-0.51 1 -1.71 1.68 -2.52 2.44 -2.34 2.18 -0.63 5.67 2.32 6.38a11.26 11.26 0 0 0 4.55 -0.24c-0.6 0.68 -1.49 1.18 -2.07 1.82a2.41 2.41 0 0 0 0.07 3.38c1.42 1.36 5 2.48 8.45 2 0.64 -0.09 2.36 -0.79 2.65 0.09 0.37 1.13 -1 2.41 0 4.22 0.76 1.17 2.37 1.41 3.65 1.4a46.62 46.62 0 0 0 5.77 -0.59c6.91 -0.94 12.61 -2.36 18.54 -6 0.47 -0.36 -0.06 -1.22 -0.57 -0.87Z" fill="#5e503b" stroke-width="1"></path>
    <path d="M94.84 142.58c-18 -0.84 -37.41 -21.51 -38 -47.08 -0.48 -18.65 11.28 -44.38 33.74 -40.5 12 2.06 21.7 9.27 28.14 20.72a56 56 0 0 1 3.17 48.07 35 35 0 0 1 -11.27 14.69c-5 3.81 -9.62 4.38 -15.78 4.1Z" fill="#ffe7ab" stroke-width="1"></path>
    <path d="M94.84 142.08c-14.28 -0.65 -31.27 -14.72 -36.21 -36.23 -3.2 -13.91 -0.18 -28.55 7.13 -39.11 8.43 -12.2 21.2 -14.63 34.47 -8.26 15.41 7.4 24 24.59 24.91 41.05 0.46 8.3 -1.08 19 -4.73 26.45A36 36 0 0 1 112 136.7c-5.14 4.62 -10.37 5.76 -17.13 5.39a0.5 0.5 0 0 0 0 1c4.13 0.08 8.28 -0.07 12.1 -1.82 4.08 -1.88 7.5 -5.2 10.29 -8.67a33.59 33.59 0 0 0 6.36 -12.26 57.57 57.57 0 0 0 -2.34 -40.78 45.17 45.17 0 0 0 -15.67 -19.16c-5.67 -3.87 -14.11 -6.8 -21.28 -6.26C64.91 55.6 54.6 80.37 56.58 99.65c2.63 25.67 22.83 43.1 38.26 43.46 0.64 0.01 0.64 -1 0 -1.03Z" fill="#5e503b" stroke-width="1"></path>
    <path d="m75.569255393 82.153037912 17.9709924924 -7.7730192872s2.909501849 -1.2584510286 4.1679528775 1.6510508203l4.037364972 9.3342693384s1.2584510286 2.909501849 -1.6510508203 4.1679528775l-17.9709924924 7.7730192872s-2.9095018489 1.2584510286 -4.1679528775 -1.6510508203l-4.0373649719 -9.3342693385s-1.2584510286 -2.9095018488 1.6510508203 -4.1679528775" fill="#606060" stroke-width="1"></path>
    <path d="m103.0583375614 70.2617343344 16.74110843 -7.2410557608s2.909501849 -1.2584510286 4.1679528776 1.6510508202l4.0373649719 9.3342693385s1.2584510286 2.909501849 -1.6510508203 4.1679528775l-16.74110843 7.2410557609s-2.909501849 1.2584510286 -4.1679528775 -1.6510508203l-4.037364972 -9.3342693385s-1.2584510286 -2.9095018488 1.6510508203 -4.1679528775" fill="#606060" stroke-width="1"></path>
    <path d="m128.46 73.81 -4 -9.34a3.67 3.67 0 0 0 -4.83 -1.91l-16.77 7.24a3.67 3.67 0 0 0 -1.86 4.83l0.74 1.72A5.78 5.78 0 0 0 99 77.68l-0.8 -1.85a3.67 3.67 0 0 0 -4.82 -1.91l-18 7.78a3.66 3.66 0 0 0 -1.91 4.82l4 9.34a3.69 3.69 0 0 0 4.83 1.91l18 -7.78a3.66 3.66 0 0 0 1.91 -4.82l-2.8 -6.48a5.42 5.42 0 0 1 2.72 -1.35L105 84a3.67 3.67 0 0 0 4.82 1.92l16.74 -7.25a3.66 3.66 0 0 0 1.9 -4.86ZM99.89 89.08l-18 7.77a2.67 2.67 0 0 1 -3.51 -1.39l-4 -9.33a2.67 2.67 0 0 1 1.39 -3.52l18 -7.77a2.68 2.68 0 0 1 3.51 1.39l4 9.34a2.66 2.66 0 0 1 -1.39 3.51Zm26.27 -11.36L109.42 85a2.68 2.68 0 0 1 -3.51 -1.39l-4 -9.34a2.66 2.66 0 0 1 1.39 -3.51l16.7 -7.28a2.67 2.67 0 0 1 3.51 1.39l4 9.34a2.68 2.68 0 0 1 -1.35 3.51Z" fill="#5e503b" stroke-width="1"></path>
    <path d="m84.41 82.88 -1.8 5.8c-0.2 0.62 0.77 0.88 1 0.27l1.8 -5.8c0.19 -0.62 -0.77 -0.88 -1 -0.27Z" fill="#ffffff" stroke-width="1"></path>
    <path d="M89.41 90.8a0.51 0.51 0 0 0 0.37 0.63 0.53 0.53 0 0 0 0.63 -0.37l3.39 -11.73a0.52 0.52 0 0 0 -0.37 -0.63 0.51 0.51 0 0 0 -0.63 0.37c-0.1 0 -0.06 -0.48 -3.39 11.73Z" fill="#ffffff" stroke-width="1"></path>
    <path d="m111.67 72.56 -1.07 4.58a0.52 0.52 0 0 0 1 0.27l1.08 -4.58a0.52 0.52 0 0 0 -1 -0.27Z" fill="#ffffff" stroke-width="1"></path>
    <path d="M119 67.54a100.75 100.75 0 0 0 -1.94 10.2c-0.1 0.63 0.87 0.9 1 0.27 0.52 -3.44 1.15 -6.84 1.94 -10.21a0.52 0.52 0 0 0 -1 -0.26Z" fill="#ffffff" stroke-width="1"></path>
    <path d="M107.6 113.2a15.51 15.51 0 0 0 -0.36 -1.81c-0.11 -0.32 -0.49 -0.62 -0.9 -0.13a5.07 5.07 0 0 0 -0.76 1.55 1.59 1.59 0 0 0 0.13 1.55 1.18 1.18 0 0 0 1.89 -1.16Z" fill="#5e503b" stroke-width="1"></path>
    <path d="M122.73 101.56a4.45 4.45 0 0 0 -1.39 -0.27c-0.82 0 -1.14 0.86 0 1.91 1.58 1.38 3.66 -0.68 1.39 -1.64Z" fill="#5e503b" stroke-width="1"></path>
    <path d="M120.52 121.45c0 -0.1 -0.78 -2.07 -1.22 -2.07s-1.61 2.39 -0.58 3.44a1.07 1.07 0 0 0 1.47 0 1.55 1.55 0 0 0 0.33 -1.37Z" fill="#5e503b" stroke-width="1"></path>
    <path d="M83.57 65.45c-0.9 -1.1 -2.71 -0.71 -2.61 0.6a1.86 1.86 0 0 0 1.29 1.43A14.64 14.64 0 0 0 84 68c0.55 0.1 0.8 0 0.69 -0.65a7.62 7.62 0 0 0 -1.12 -1.9Z" fill="#5e503b" stroke-width="1"></path>
    <path d="M99.47 63.24c0.72 -1.24 -0.26 -2.79 -1.47 -2.24a1.86 1.86 0 0 0 -0.9 1.7 14.38 14.38 0 0 0 0.13 1.8c0.1 0.54 0.24 0.76 0.85 0.43a8.21 8.21 0 0 0 1.39 -1.69Z" fill="#5e503b" stroke-width="1"></path>
    <path d="M133.83 87.25a3.68 3.68 0 1 0 7.36 0 3.68 3.68 0 1 0 -7.36 0" fill="#f47fbd" stroke-width="1"></path>
    <path d="M154.88 92.12a3.68 3.68 0 1 0 7.36 0 3.68 3.68 0 1 0 -7.36 0" fill="#f47fbd" stroke-width="1"></path>
    <path d="M141 83.25a1.9 1.9 0 1 0 1.89 1.9 1.9 1.9 0 0 0 -1.89 -1.9Z" fill="#5e503b" stroke-width="1"></path>
    <path d="M156.27 86.87a1.9 1.9 0 1 0 1.89 1.9 1.9 1.9 0 0 0 -1.89 -1.9Z" fill="#5e503b" stroke-width="1"></path>
    <path d="M143.66 90.65a4.41 4.41 0 0 0 8.41 1.75c0.27 -0.58 -0.6 -1.1 -0.86 -0.51a3.43 3.43 0 0 1 -4.47 1.81 3.38 3.38 0 0 1 -2.08 -3 0.5 0.5 0 0 0 -1 -0.05Z" fill="#5e503b" stroke-width="1"></path>
    <path d="M158 127.86c8.94 -10.13 6.92 -25.74 -0.61 -27.81 -5.81 -1.6 -15.14 4.43 -16.4 17.14 -0.42 4.64 0.27 10.2 4.11 13.35a7.17 7.17 0 0 0 8.07 1.23 17.76 17.76 0 0 0 4.63 -3.69 0.47 0.47 0 0 0 0.2 -0.22Zm-0.25 -1.17q-1.69 -5.37 -3.37 -10.73l8.23 -0.16a24.43 24.43 0 0 1 -4.86 10.89Zm5 -11.89 -8.24 0.15 5.91 -11.62c2.32 2.92 2.89 7.8 2.35 11.47Zm-3.05 -12.26 -5.91 11.61q-1.83 -5.84 -3.67 -11.69a11.61 11.61 0 0 1 5.11 -1.67 6.07 6.07 0 0 1 4.49 1.75Zm-10.47 0.53q1.88 6 3.74 11.91l-10.7 0.2a20.37 20.37 0 0 1 6.98 -12.11Zm-7.11 13.12 10.74 -0.2 -7 13.8c-3.69 -3.04 -4.31 -8.88 -3.72 -13.6Zm4.66 14.28c-0.19 -0.12 -0.66 1 6.77 -13.64q1.68 5.4 3.38 10.78c-2.93 3.23 -6.42 5.25 -10.13 2.86Z" fill="#ffffff" stroke-width="1"></path>
    <path d="M144.72 112.29c-1 -1.25 -3 -0.89 -4.6 -0.82a9.53 9.53 0 0 1 -9.17 -6.32l-3.2 8c5.83 9.75 20.42 4.02 16.97 -0.86Z" fill="#ffaad7" stroke-width="1"></path>
    <path d="M130.46 105.29a10.19 10.19 0 0 0 7.54 6.51 14.82 14.82 0 0 0 3.46 0.09c1.1 -0.08 2.61 -0.08 3.11 1.14s-0.5 2.63 -1.54 3.33a10.57 10.57 0 0 1 -14.85 -3.36c-0.33 -0.55 -1.19 0 -0.86 0.5a11.83 11.83 0 0 0 14.68 4.56c2.65 -1 4.8 -3.7 3.1 -6.07a3.83 3.83 0 0 0 -3.19 -1.12 14.89 14.89 0 0 1 -4 -0.11 9.07 9.07 0 0 1 -6.51 -5.78c-0.21 -0.6 -1.18 -0.34 -1 0.27Z" fill="#5e503b" stroke-width="1"></path>
    <path d="M164.81 103.42c-0.42 1.31 -0.78 3.75 -2.12 4 -1.79 0.55 -2.68 5.47 0.14 5.77 2.2 0.24 3.8 -1.82 4.2 -3.82a6.47 6.47 0 0 0 -2.22 -5.95Z" fill="#ffaad7" stroke-width="1"></path>
    <path d="M165.38 103.27c0.12 -0.57 -0.8 -0.8 -1 -0.2 -0.61 1.59 -0.61 3.62 -2.1 4 -1.39 0.63 -1.87 2.7 -1.77 4.08 0.26 3.81 5.74 3.51 6.94 -1.44a6.82 6.82 0 0 0 -2.07 -6.44Zm1.18 5.68c-0.2 1.58 -1.27 3.41 -2.94 3.74a1.73 1.73 0 0 1 -1.75 -0.48 3.53 3.53 0 0 1 0.09 -3.45c0.8 -1.73 1.9 0.32 3.09 -4.37a5.92 5.92 0 0 1 1.51 4.61Z" fill="#5e503b" stroke-width="1"></path>
    <path d="M153.08 116a99 99 0 0 1 7.78 8.72 1 1 0 0 0 1.42 -1.42 99 99 0 0 0 -7.78 -8.72 1 1 0 0 0 -1.42 1.42Z" fill="#ffffff" stroke-width="1"></path>
    <path d="M140.14 162.52c11 -10.46 24.57 -22.41 34.94 -32.58 -1.65 -5.93 -2.51 -9 -3 -15.28a424.63 424.63 0 0 1 -36.45 29.8s4.45 18.01 4.51 18.06Z" fill="#abffe1" stroke-width="1"></path>
    <path d="M140.06 162.49c-1.24 -5.46 -2.81 -10.58 -4.41 -18 -0.19 -0.89 -60.54 -3.53 -89 -4.54a44.31 44.31 0 0 1 -5.51 15.35c3.49 1.18 69.68 4.08 98.92 7.19Z" fill="#51bdbf" stroke-width="1"></path>
    <path d="M175.6 129.76a69.44 69.44 0 0 1 -3 -15.14 0.51 0.51 0 0 0 -0.85 -0.36 426.32 426.32 0 0 1 -36.2 29.61c-6.19 -1.35 -87.81 -4.64 -88.63 -4.44 -0.36 -0.15 -0.68 -0.2 -0.75 0.24a45.12 45.12 0 0 1 -5.49 15.38 0.51 0.51 0 0 0 0.3 0.74 13.32 13.32 0 0 0 2.81 0.4c6.69 0.69 91.79 6.4 96.24 6.8a1.19 1.19 0 0 0 0.57 -0.2c9.11 -8.63 32.46 -30.2 34.84 -32.54a0.5 0.5 0 0 0 0.16 -0.49Zm-56.2 30.42c-13.94 -1 -74.32 -4.69 -77.53 -5.24a45.49 45.49 0 0 0 5.21 -14.5c0.54 0.1 -0.52 0 9.61 0.35l78.5 4c0.61 3.36 3.58 14.5 4.19 17.09 -6.65 -0.67 -13.32 -1.2 -19.98 -1.7Zm21 1.48c-1.06 -4.53 -3.6 -13.89 -4.18 -17a429.68 429.68 0 0 0 35.46 -28.95 65.23 65.23 0 0 0 2.89 14.08c-10.52 10.21 -20.92 19.35 -34.19 31.87Z" fill="#5e503b" stroke-width="1"></path>
    <path d="M148.67 142.91a2.24 2.24 0 0 0 -2.86 -0.81c-2.12 0.85 -2.9 4.34 -1.68 6.13a2.87 2.87 0 0 0 2.86 1.22c2.75 -0.75 3.18 -4.27 1.68 -6.54Z" fill="#fffda9" stroke-width="1"></path>
    <path d="M147.1 141.4c-3.82 -0.27 -5.82 6.33 -1.92 8.29a3.43 3.43 0 0 0 4.44 -1.77c1.11 -2.53 0.06 -6.16 -2.52 -6.52Zm1.85 5.47a2.62 2.62 0 0 1 -2.87 2.08c-3.12 -0.71 -2.24 -6.1 0.47 -6.57 1.94 -0.38 2.85 2.62 2.45 4.49Z" fill="#5e503b" stroke-width="1"></path>
    <path d="M165.43 125.86c-2 0.79 -2.71 4 -1.56 5.72a2.67 2.67 0 0 0 2.66 1.15c4.15 -1.09 2.29 -8.5 -1.1 -6.87Z" fill="#fffda9" stroke-width="1"></path>
    <path d="M166.6 125.17c-3.7 -0.22 -5.41 6 -1.77 7.81a3.23 3.23 0 0 0 4.19 -1.67c1.08 -2.42 0.04 -5.83 -2.42 -6.14Zm1.74 5.14a2.44 2.44 0 0 1 -2.64 1.92c-3.54 -0.8 -1.37 -7.6 1.58 -5.73 1.07 0.68 1.35 2.56 1.06 3.81Z" fill="#5e503b" stroke-width="1"></path>
    <path d="M28.5 143.07a10.73 10.73 0 0 0 -4.09 12.5c0.21 0.6 1.2 0.33 1 -0.27A9.82 9.82 0 0 1 29 144c0.52 -0.36 0 -1.22 -0.5 -0.86Z" fill="#ffaad7" stroke-width="1"></path>
    <path d="M33.87 144.59a5.24 5.24 0 0 0 -2.18 6.92c0.29 0.57 1.15 0.07 0.87 -0.5a4.22 4.22 0 0 1 1.85 -5.55c0.57 -0.3 0.06 -1.16 -0.51 -0.87Z" fill="#ffaad7" stroke-width="1"></path>
    <path d="M182.55 127.76a4.13 4.13 0 0 1 1.13 5.42 0.5 0.5 0 0 0 0.87 0.51 5.16 5.16 0 0 0 -1.5 -6.79c-0.53 -0.37 -1 0.5 -0.5 0.86Z" fill="#ffaad7" stroke-width="1"></path>
    <path d="M186.31 123.43a8.38 8.38 0 0 1 1.69 11.31c-0.37 0.53 0.5 1 0.87 0.51a9.39 9.39 0 0 0 -1.87 -12.53c-0.48 -0.4 -1.2 0.28 -0.69 0.71Z" fill="#ffaad7" stroke-width="1"></path>
    <path d="M67.08 159.91c-1.73 6.57 -14.84 9 -17.67 3.37 -0.92 -2.1 0.17 -4.38 1.29 -6.14 2.44 -3.85 7.79 -6.36 12.25 -4.75a6.16 6.16 0 0 1 4.13 7.52Z" fill="#abffe1" stroke-width="1"></path>
    <path d="M63.12 151.92c-4.95 -1.79 -10.41 1.12 -12.84 5 -1.08 1.69 -2.38 4.21 -1.32 6.63 3.09 6.11 16.87 3.53 18.6 -3.46a6.66 6.66 0 0 0 -4.44 -8.17Zm-0.95 12.63c-3.78 1.82 -10.42 2.25 -12.3 -1.47 -0.86 -2 0.3 -4.18 1.25 -5.67 2.29 -3.62 7.41 -6.08 11.68 -4.54 4.77 1.44 6.11 8.42 -0.63 11.68Z" fill="#5e503b" stroke-width="1"></path>
    <path d="M124.3 163.56c-1.74 6.6 -14.86 8.94 -17.68 3.37 -0.92 -2.1 0.16 -4.38 1.28 -6.14 2.44 -3.86 7.8 -6.37 12.26 -4.75a6.17 6.17 0 0 1 4.14 7.52Z" fill="#abffe1" stroke-width="1"></path>
    <path d="M120.33 155.57c-4.93 -1.79 -10.41 1.11 -12.86 5 -1.06 1.69 -2.36 4.22 -1.3 6.63 3 6 16.84 3.66 18.61 -3.46a6.67 6.67 0 0 0 -4.45 -8.17Zm-1 12.63c-3.89 1.88 -10.41 2.24 -12.29 -1.47 -0.86 -2 0.3 -4.18 1.24 -5.67 2.29 -3.6 7.41 -6.1 11.69 -4.54 4.8 1.48 6.18 8.41 -0.6 11.68Z" fill="#5e503b" stroke-width="1"></path>
    <path d="m87.9 169.14 -72.57 -0.77a0.5 0.5 0 0 0 0 1l72.58 0.77a0.51 0.51 0 0 0 0.5 -0.5 0.5 0.5 0 0 0 -0.51 -0.5Z" fill="#51bdbf" stroke-width="1"></path>
    <path d="M80.23 163.76 30.7 163a0.53 0.53 0 0 0 -0.51 0.49 0.5 0.5 0 0 0 0.49 0.51l49.54 0.76a0.5 0.5 0 0 0 0 -1Z" fill="#51bdbf" stroke-width="1"></path>
    <path d="M43 62.77H14.56a0.5 0.5 0 0 0 -0.5 0.5 0.5 0.5 0 0 0 0.5 0.5H43a0.51 0.51 0 0 0 0.5 -0.5 0.5 0.5 0 0 0 -0.5 -0.5Z" fill="#51bdbf" stroke-width="1"></path>
    <path d="m68.31 67.38 -58.75 0.77a0.49 0.49 0 0 0 -0.49 0.5 0.5 0.5 0 0 0 0.5 0.5l58.75 -0.77a0.51 0.51 0 0 0 0.5 -0.51 0.53 0.53 0 0 0 -0.51 -0.49Z" fill="#51bdbf" stroke-width="1"></path>
    <path d="M112.48 88.62C108 90 101.93 90 97.69 88a22.66 22.66 0 0 0 0.31 8c0.73 2.58 2.62 5 5.24 5.6 2.87 0.65 5.91 -1.13 7.43 -3.65a18.23 18.23 0 0 0 1.81 -9.33Z" fill="#ffffff" stroke-width="1"></path>
    <path d="M112.35 88.13A21 21 0 0 1 98 87.57a0.52 0.52 0 0 0 -0.76 0.43c-0.37 4.68 -0.5 10.67 4.17 13.39 4.13 2.33 9 -0.49 10.54 -4.83 1.51 -3.86 1 -6.48 1.12 -7.78a0.59 0.59 0 0 0 -0.72 -0.65Zm-0.81 6.49c-1 4.38 -4.77 7.78 -8.94 6.27a7.41 7.41 0 0 1 -3.88 -4.47 18.93 18.93 0 0 1 -0.52 -7.68 22.06 22.06 0 0 0 13.79 0.6 18.25 18.25 0 0 1 -0.45 5.28Z" fill="#5e503b" stroke-width="1"></path>
    <path d="M68.38 96.37c-1.39 0.27 -1.91 2 -0.71 2.58a1.87 1.87 0 0 0 1.88 -0.46 16 16 0 0 0 1.26 -1.29c0.33 -0.43 0.4 -0.68 -0.25 -0.92a7.85 7.85 0 0 0 -2.18 0.09Z" fill="#5e503b" stroke-width="1"></path>
    <path d="M83.62 110c-1.16 0.81 -0.92 2.64 0.4 2.65a1.85 1.85 0 0 0 1.52 -1.18 14.52 14.52 0 0 0 0.63 -1.69c0.14 -0.53 0.1 -0.79 -0.6 -0.74a7.39 7.39 0 0 0 -1.95 0.96Z" fill="#5e503b" stroke-width="1"></path>
    <path d="M91.37 124.65c-0.66 1.25 0.4 2.77 1.56 2.17a1.83 1.83 0 0 0 0.82 -1.75 12.61 12.61 0 0 0 -0.22 -1.79c-0.12 -0.53 -0.27 -0.74 -0.87 -0.38a7.52 7.52 0 0 0 -1.29 1.75Z" fill="#5e503b" stroke-width="1"></path>
  </g>
</svg>